<svg id="visual" viewBox="0 0 900 600" width="900" height="600" xmlns="http://www.w3.org/2000/svg" xmlns:xlink="http://www.w3.org/1999/xlink" version="1.1"><g stroke-width="1" stroke-linejoin="bevel"><path d="M423 265L466 199L372 192Z" fill="#ffd8cd" stroke="#000000"></path><path d="M466 199L398 112L372 192Z" fill="#d43114" stroke="#000000"></path><path d="M284 196L327 284L372 192Z" fill="#ffffff" stroke="#000000"></path><path d="M372 192L327 284L423 265Z" fill="#f89e85" stroke="#000000"></path><path d="M492 367L527 293L423 265Z" fill="#fcb19c" stroke="#000000"></path><path d="M423 265L527 293L466 199Z" fill="#ec7758" stroke="#000000"></path><path d="M324 81L284 196L372 192Z" fill="#e56242" stroke="#000000"></path><path d="M592 221L511 106L466 199Z" fill="#ffd8cd" stroke="#000000"></path><path d="M466 199L511 106L398 112Z" fill="#ec7758" stroke="#000000"></path><path d="M383 0L324 81L398 112Z" fill="#f38a6e" stroke="#000000"></path><path d="M398 112L324 81L372 192Z" fill="#dd4b2c" stroke="#000000"></path><path d="M527 293L575 271L466 199Z" fill="#fcb19c" stroke="#000000"></path><path d="M369 404L492 367L423 265Z" fill="#d43114" stroke="#000000"></path><path d="M527 293L579 377L575 271Z" fill="#ffece6" stroke="#000000"></path><path d="M575 271L592 221L466 199Z" fill="#f89e85" stroke="#000000"></path><path d="M283 403L369 404L327 284Z" fill="#f89e85" stroke="#000000"></path><path d="M327 284L369 404L423 265Z" fill="#fcb19c" stroke="#000000"></path><path d="M198 171L228 270L284 196Z" fill="#dd4b2c" stroke="#000000"></path><path d="M284 196L228 270L327 284Z" fill="#d43114" stroke="#000000"></path><path d="M477 0L383 0L398 112Z" fill="#e56242" stroke="#000000"></path><path d="M609 0L477 0L511 106Z" fill="#dd4b2c" stroke="#000000"></path><path d="M511 106L477 0L398 112Z" fill="#fcb19c" stroke="#000000"></path><path d="M210 68L284 196L324 81Z" fill="#ffc5b4" stroke="#000000"></path><path d="M210 68L198 171L284 196Z" fill="#ec7758" stroke="#000000"></path><path d="M383 0L339 0L324 81Z" fill="#f89e85" stroke="#000000"></path><path d="M492 367L579 377L527 293Z" fill="#fcb19c" stroke="#000000"></path><path d="M575 271L679 296L592 221Z" fill="#f38a6e" stroke="#000000"></path><path d="M499 479L579 377L492 367Z" fill="#f38a6e" stroke="#000000"></path><path d="M228 270L283 403L327 284Z" fill="#ffc5b4" stroke="#000000"></path><path d="M339 0L210 68L324 81Z" fill="#dd4b2c" stroke="#000000"></path><path d="M703 162L634 76L592 221Z" fill="#d43114" stroke="#000000"></path><path d="M592 221L634 76L511 106Z" fill="#ec7758" stroke="#000000"></path><path d="M579 377L679 296L575 271Z" fill="#e56242" stroke="#000000"></path><path d="M428 526L499 479L369 404Z" fill="#ffffff" stroke="#000000"></path><path d="M369 404L499 479L492 367Z" fill="#f89e85" stroke="#000000"></path><path d="M579 377L663 390L679 296Z" fill="#f89e85" stroke="#000000"></path><path d="M634 76L609 0L511 106Z" fill="#ffece6" stroke="#000000"></path><path d="M679 296L703 162L592 221Z" fill="#e56242" stroke="#000000"></path><path d="M634 76L686 0L609 0Z" fill="#d43114" stroke="#000000"></path><path d="M198 171L123 238L228 270Z" fill="#e56242" stroke="#000000"></path><path d="M228 270L182 397L283 403Z" fill="#ffffff" stroke="#000000"></path><path d="M112 76L123 238L198 171Z" fill="#dd4b2c" stroke="#000000"></path><path d="M182 397L309 490L283 403Z" fill="#f89e85" stroke="#000000"></path><path d="M283 403L309 490L369 404Z" fill="#f38a6e" stroke="#000000"></path><path d="M121 308L182 397L228 270Z" fill="#e56242" stroke="#000000"></path><path d="M568 516L663 390L579 377Z" fill="#ffd8cd" stroke="#000000"></path><path d="M679 296L784 235L703 162Z" fill="#e56242" stroke="#000000"></path><path d="M339 0L202 0L210 68Z" fill="#e56242" stroke="#000000"></path><path d="M210 68L112 76L198 171Z" fill="#ffffff" stroke="#000000"></path><path d="M703 162L701 98L634 76Z" fill="#ffc5b4" stroke="#000000"></path><path d="M123 238L121 308L228 270Z" fill="#f38a6e" stroke="#000000"></path><path d="M309 490L428 526L369 404Z" fill="#ffc5b4" stroke="#000000"></path><path d="M499 479L568 516L579 377Z" fill="#d43114" stroke="#000000"></path><path d="M133 0L112 76L210 68Z" fill="#f89e85" stroke="#000000"></path><path d="M0 277L95 420L121 308Z" fill="#fcb19c" stroke="#000000"></path><path d="M506 600L568 516L499 479Z" fill="#e56242" stroke="#000000"></path><path d="M701 98L686 0L634 76Z" fill="#dd4b2c" stroke="#000000"></path><path d="M202 0L133 0L210 68Z" fill="#dd4b2c" stroke="#000000"></path><path d="M783 339L784 235L679 296Z" fill="#ffc5b4" stroke="#000000"></path><path d="M703 162L806 116L701 98Z" fill="#f89e85" stroke="#000000"></path><path d="M701 98L773 0L686 0Z" fill="#d43114" stroke="#000000"></path><path d="M783 339L679 296L663 390Z" fill="#dd4b2c" stroke="#000000"></path><path d="M0 277L121 308L123 238Z" fill="#dd4b2c" stroke="#000000"></path><path d="M121 308L95 420L182 397Z" fill="#dd4b2c" stroke="#000000"></path><path d="M182 397L163 539L309 490Z" fill="#f89e85" stroke="#000000"></path><path d="M806 396L783 339L663 390Z" fill="#fcb19c" stroke="#000000"></path><path d="M428 526L506 600L499 479Z" fill="#ffffff" stroke="#000000"></path><path d="M309 490L381 600L428 526Z" fill="#e56242" stroke="#000000"></path><path d="M326 600L381 600L309 490Z" fill="#f89e85" stroke="#000000"></path><path d="M381 600L506 600L428 526Z" fill="#f89e85" stroke="#000000"></path><path d="M568 516L739 535L663 390Z" fill="#ffd8cd" stroke="#000000"></path><path d="M226 600L326 600L309 490Z" fill="#f38a6e" stroke="#000000"></path><path d="M900 231L806 116L784 235Z" fill="#f38a6e" stroke="#000000"></path><path d="M784 235L806 116L703 162Z" fill="#f38a6e" stroke="#000000"></path><path d="M95 420L163 539L182 397Z" fill="#f89e85" stroke="#000000"></path><path d="M806 116L773 0L701 98Z" fill="#fcb19c" stroke="#000000"></path><path d="M0 120L0 227L123 238Z" fill="#dd4b2c" stroke="#000000"></path><path d="M0 120L123 238L112 76Z" fill="#ffd8cd" stroke="#000000"></path><path d="M0 227L0 277L123 238Z" fill="#ffece6" stroke="#000000"></path><path d="M95 420L83 526L163 539Z" fill="#fcb19c" stroke="#000000"></path><path d="M506 600L600 600L568 516Z" fill="#e56242" stroke="#000000"></path><path d="M0 0L0 120L112 76Z" fill="#ffd8cd" stroke="#000000"></path><path d="M769 523L806 396L663 390Z" fill="#ec7758" stroke="#000000"></path><path d="M900 282L900 231L784 235Z" fill="#ec7758" stroke="#000000"></path><path d="M163 539L226 600L309 490Z" fill="#ffc5b4" stroke="#000000"></path><path d="M600 600L739 535L568 516Z" fill="#ec7758" stroke="#000000"></path><path d="M0 436L83 526L95 420Z" fill="#ffece6" stroke="#000000"></path><path d="M163 539L111 600L226 600Z" fill="#ffffff" stroke="#000000"></path><path d="M762 600L769 523L739 535Z" fill="#ec7758" stroke="#000000"></path><path d="M739 535L769 523L663 390Z" fill="#ffffff" stroke="#000000"></path><path d="M133 0L0 0L112 76Z" fill="#f89e85" stroke="#000000"></path><path d="M0 277L0 436L95 420Z" fill="#ffd8cd" stroke="#000000"></path><path d="M900 282L784 235L783 339Z" fill="#e56242" stroke="#000000"></path><path d="M806 116L900 79L773 0Z" fill="#fcb19c" stroke="#000000"></path><path d="M900 282L783 339L806 396Z" fill="#e56242" stroke="#000000"></path><path d="M600 600L709 600L739 535Z" fill="#d43114" stroke="#000000"></path><path d="M900 425L900 282L806 396Z" fill="#d43114" stroke="#000000"></path><path d="M0 600L111 600L83 526Z" fill="#fcb19c" stroke="#000000"></path><path d="M83 526L111 600L163 539Z" fill="#f89e85" stroke="#000000"></path><path d="M900 231L900 79L806 116Z" fill="#fcb19c" stroke="#000000"></path><path d="M0 436L0 510L83 526Z" fill="#ffd8cd" stroke="#000000"></path><path d="M709 600L762 600L739 535Z" fill="#f38a6e" stroke="#000000"></path><path d="M769 523L900 425L806 396Z" fill="#fcb19c" stroke="#000000"></path><path d="M900 521L900 425L769 523Z" fill="#e56242" stroke="#000000"></path><path d="M900 79L900 0L773 0Z" fill="#fcb19c" stroke="#000000"></path><path d="M0 510L0 600L83 526Z" fill="#ffffff" stroke="#000000"></path><path d="M900 600L900 521L769 523Z" fill="#d43114" stroke="#000000"></path><path d="M762 600L900 600L769 523Z" fill="#f89e85" stroke="#000000"></path></g></svg>